<svg xmlns="http://www.w3.org/2000/svg" width="40" height="40.034" viewBox="0 0 40 40.034">
  <path id="github-icon" d="M13.574,33.063c0,.165-.766,0-1,0-.266.025,0,.19,0,0,0-.165-.234-1,0-1C12.816,32.039,13.574,32.873,13.574,33.063Zm-3-1c-.056.165.758.95,1,1,.21.083-.048.165,0,0s.242-.926,0-1C11.365,32.006,10.631,31.9,10.574,32.063Zm4,0c-.234.058-1.024.81-1,1,.024.165.758.058,1,0s.024-.835,0-1S14.808,32.039,14.574,32.063Zm5-32c-11.185,0-20,9.528-20,21,0,9.173,5.96,16.237,14,19,1.032.19,1-.462,1-1v-5s-4.815,1.705-6-2c0,0-1.677-2.38-3-3,0,0-.976-1.025,1-1a3.756,3.756,0,0,1,3,2c1.766,3.193,4.847,1.546,6,1a2.444,2.444,0,0,1,1-2c-4.508-.513-9-1.043-9-9a6.708,6.708,0,0,1,2-5,8.649,8.649,0,0,1,0-6c1.685-.538,5,2,5,2,1.613-.463,3.282,0,5,0s4.387-.463,6,0c0,0,3.315-2.546,5-2a8.644,8.644,0,0,1,0,6,6.734,6.734,0,0,1,2,5c0,7.982-4.492,8.479-9,9a5.513,5.513,0,0,1,2,4c0,2.787-1,5.322-1,6,0,.538.976,1.19,2,1,8.065-2.746,13-9.827,13-19C39.574,9.591,30.76.063,19.574.063Zm-12,29c-.1.083-.137-.157,0,0,.129.132.9,1.108,1,1a1.419,1.419,0,0,0,0-1A1.434,1.434,0,0,0,7.574,29.063Zm-1-1c-.056.108.839.917,1,1,.129.083-.056.116,0,0s.161-.917,0-1A2.528,2.528,0,0,0,6.574,28.063Zm3,3a1.117,1.117,0,0,0,0,1,1.09,1.09,0,0,0,1,0,1.3,1.3,0,0,0,0-1A1.091,1.091,0,0,0,9.574,31.063Zm-1-1a1.332,1.332,0,0,0,0,1c.129.19.9.083,1,0a1.335,1.335,0,0,0,0-1C9.461,29.873,8.7,29.956,8.574,30.063Z" transform="translate(0.426 -0.063)" fill="#2a2a2a"/>
</svg>
