<svg xmlns="http://www.w3.org/2000/svg" width="221.577" height="116.383" viewBox="0 0 221.577 116.383">
  <g id="infinity_small" transform="translate(-2214.211 -229)">
    <path id="Subtraction_31" data-name="Subtraction 31" d="M221.5,64.383h0l0-4.883H188.741c.014-.31.021-.63.021-.953,0-12.913-11.448-23.419-25.52-23.419-5.907,0-12.136,2.665-18.514,7.922a80.221,80.221,0,0,0-13.912,15.5c.213.3.44.625.675.953H90.509c.21-.293.431-.6.676-.953C85.066,49.8,72.719,35.128,58.758,35.128c-14.072,0-25.52,10.506-25.52,23.419,0,.316.007.637.021.953H.5v4.863C.308,62.444.212,60.487.212,58.547A58.613,58.613,0,0,1,58.758,0,52.725,52.725,0,0,1,74.965,2.584,63.329,63.329,0,0,1,89.143,9.294,96.131,96.131,0,0,1,111,28.823a96.131,96.131,0,0,1,21.857-19.53,63.33,63.33,0,0,1,14.178-6.709A52.728,52.728,0,0,1,163.242,0a58.613,58.613,0,0,1,58.547,58.547C221.789,60.493,221.692,62.457,221.5,64.383Z" transform="translate(2214 229)" fill="#e0f2ff"/>
    <path id="Subtraction_32" data-name="Subtraction 32" d="M221.5,64.383h0l0-4.883H188.741c.014-.31.021-.63.021-.953,0-12.913-11.448-23.419-25.52-23.419-5.907,0-12.136,2.665-18.514,7.922a80.221,80.221,0,0,0-13.912,15.5c.213.3.44.625.675.953H90.509c.21-.293.431-.6.676-.953C85.066,49.8,72.719,35.128,58.758,35.128c-14.072,0-25.52,10.506-25.52,23.419,0,.316.007.637.021.953H.5v4.863C.308,62.444.212,60.487.212,58.547A58.613,58.613,0,0,1,58.758,0,52.725,52.725,0,0,1,74.965,2.584,63.329,63.329,0,0,1,89.143,9.294,96.131,96.131,0,0,1,111,28.823a96.131,96.131,0,0,1,21.857-19.53,63.33,63.33,0,0,1,14.178-6.709A52.728,52.728,0,0,1,163.242,0a58.613,58.613,0,0,1,58.547,58.547C221.789,60.493,221.692,62.457,221.5,64.383Z" transform="translate(2436 345.383) rotate(180)" fill="#69bdff"/>
  </g>
</svg>
