<svg xmlns="http://www.w3.org/2000/svg" width="738" height="390.001" viewBox="0 0 738 390.001">
  <g id="infinity" transform="translate(0 0)">
    <path id="Subtraction_30" data-name="Subtraction 30" d="M195,390A194.9,194.9,0,0,1,0,195c0-3.435.091-6.907.27-10.321A193.965,193.965,0,0,1,34.822,84.014a196.433,196.433,0,0,1,80.163-66.789A193.343,193.343,0,0,1,185.074.25l.039,0,.039,0,.1,0,.1,0h.007l.225-.011.037,0C188.717.075,191.875,0,195,0l.961,0H195.8a172.956,172.956,0,0,1,27.015,2.259,180.1,180.1,0,0,1,26.167,6.347,198.338,198.338,0,0,1,24.477,9.781,226,226,0,0,1,22.392,12.342l.353.222.281.177.011.007.011.007.273.173.013.008C321.766,47.119,346.06,68.879,369,96l0,198c-22.85,27.014-47.042,48.709-71.9,64.483l-.006,0-.007,0-.27.171-.007,0-.036.023-.256.162-.017.011-.03.019-.265.167-.35.219,0,0a225.979,225.979,0,0,1-22.392,12.342,199.277,199.277,0,0,1-22.93,9.275l-.061.02-.061.02-.025.008-.025.008c-.775.257-1.533.5-2.315.75l-.059.019-.008,0-.018.006-.011,0a180.036,180.036,0,0,1-25.132,6.016A173.012,173.012,0,0,1,195,390Zm0-273a89.711,89.711,0,0,0-46.826,13.05l-.467.287c-.354.219-.715.447-1.074.677a83.2,83.2,0,0,0-20.358,18.292c-.549.691-1.094,1.4-1.619,2.109-.316.427-.637.869-.953,1.314l-.006.008-.039.054-.026.036a76.713,76.713,0,0,0-5.942,9.9l-.019.038-.017.034-.067.134c-.287.577-.568,1.16-.834,1.732-.123.263-.25.542-.379.829l-.012.026-.012.026-.01.022-.015.032A71.391,71.391,0,0,0,110,194.752q0,.124,0,.248t0,.248a71.4,71.4,0,0,0,6.328,29.157l.007.016.015.034.026.057c.126.279.252.556.377.824.266.572.547,1.155.834,1.733l0,0,.077.153.024.048a81.024,81.024,0,0,0,28.754,31.591c.415.267.839.535,1.261.8l.5.31A89.724,89.724,0,0,0,195,273h.478l.206,0h.026l.2,0h.022a75.616,75.616,0,0,0,25.254-4.952l.019-.007.2-.076.07-.026.068-.026.068-.026.033-.013.094-.036.035-.013.035-.013c11.384-4.324,23.1-11.407,34.808-21.055.817-.673,1.642-1.366,2.454-2.059A233.872,233.872,0,0,0,285.588,217.7l.023-.027.023-.027.113-.134.025-.029.025-.029.053-.063.053-.064c5.034-5.986,10.018-12.411,14.812-19.1l0,0,.022-.03.117-.163.059-.082.011-.015.071-.1.1-.134.017-.024.039-.054.022-.031.1-.14.007-.01.007-.01.141-.2.009-.013.006-.009.306-.431.006-.008c.41-.578.829-1.173,1.246-1.769l-.089-.127-.027-.038,0-.007c-10.839-15.457-28.215-37.379-49.444-54.039l-.007-.005-.217-.17-.025-.019-.025-.019-.164-.128-.077-.06-.077-.06-.02-.016-.02-.016c-13.926-10.823-27.741-17.962-41.061-21.218l-.081-.02-.094-.023-.171-.041-.052-.012-.211-.05A70.386,70.386,0,0,0,195,117ZM421.591,344.937c-5.464-4.2-10.937-8.733-16.267-13.468-6.313-5.608-12.662-11.71-18.872-18.138a324.214,324.214,0,0,0,35.14,31.6Zm-42.727-39.7c-.917-1.007-1.844-2.034-2.754-3.054.913,1.021,1.84,2.048,2.755,3.053h0ZM519.821,269.06a94.267,94.267,0,0,1-10.242-4.112A116.815,116.815,0,0,1,497,258.012a106.286,106.286,0,0,0,22.826,11.045Zm-34.572-19.314c-.284-.22-.567-.442-.842-.658l.843.656ZM392.7,70.365h0c4.385-4.322,8.85-8.494,13.271-12.4,5.818-5.14,11.8-10.029,17.769-14.532A314.082,314.082,0,0,0,392.7,70.365Z" transform="translate(736.999 390.001) rotate(180)" fill="#69bdff"/>
    <path id="Intersection_1" data-name="Intersection 1" d="M543,390a173.022,173.022,0,0,1-27.813-2.261,179.835,179.835,0,0,1-24.54-5.83l-.01,0-.109-.034c-.828-.259-1.644-.521-2.467-.792a198.944,198.944,0,0,1-23.518-9.47A226.2,226.2,0,0,1,441.8,359.046l-.274-.173-.032-.02-.277-.175-.014-.009c-24.379-15.417-48.107-36.517-70.572-62.755l0,0-.532-.623-.021-.025-.242-.284-.028-.033-.251-.3-.027-.031-.239-.281-.029-.035L369,294V96h0c-22.668-26.8-46.65-48.36-71.306-64.1C326.188,50.09,350.1,73.659,369,96l.259-.305.027-.032.249-.294.012-.014.259-.3.025-.029.255-.3h0c22.622-26.53,46.537-47.847,71.11-63.388l.025-.016.271-.171.033-.021.274-.172a226.4,226.4,0,0,1,22.746-12.564,198.435,198.435,0,0,1,24.477-9.781,180.168,180.168,0,0,1,26.167-6.347A172.918,172.918,0,0,1,543,0,195.625,195.625,0,0,1,721.481,116.487c.939,2.124,1.833,4.252,2.7,6.414a194.6,194.6,0,0,1,0,144.2c-.938,2.347-1.913,4.655-2.938,6.957a195.857,195.857,0,0,1-40.428,58.753l-.005.005a195.8,195.8,0,0,1-61.987,41.833A193.882,193.882,0,0,1,543,390Zm0-117c28.107,0,53.339-12.824,68.874-32.495q.751-.951,1.47-1.92.4-.534.782-1.074A72.794,72.794,0,0,0,628,195.248q0-.124,0-.248t0-.248a72.776,72.776,0,0,0-13.883-42.276q-.382-.533-.772-1.061-.308-.415-.622-.827C597.268,130.3,571.623,117,543,117c-44,0-84.009,43.773-107.817,77.739l-.01.015-.051.072-.016.023-.04.057L435,195l.109.156.015.021.112.159.005.008c12.326,17.554,29.226,37.969,48.806,53.46l.058.046.145.115c17.3,13.643,34.246,21.53,50.534,23.528l.014,0,.372.045.063.007.176.02.077.009.161.018.09.01.13.014.116.012.087.009.16.016.078.008.164.016.076.007.172.016.056.005.177.016.051,0,.172.015.044,0,.189.016.051,0,.188.015.048,0,.194.015.036,0,.206.015h.018l.215.015h.007l.214.015.026,0,.208.013.028,0,.207.013.03,0,.207.012h.024l.436.023h.019l.212.01h.025l.207.009h.03l.208.008h.021l.218.008h0l.224.007h.01l.207.006h.037l.2.005h.033l.205,0h.026l.213,0h.005l.211,0h.024l.205,0h.031l.2,0H543ZM222.813,387.739a179.95,179.95,0,0,0,25.116-6.011A174.779,174.779,0,0,1,195,390,173.022,173.022,0,0,0,222.813,387.739Zm25.211-6.041-.045.014Zm2.348-.761-.012,0Zm23.085-9.327a225.234,225.234,0,0,0,21.33-11.681,210.311,210.311,0,0,1-44.255,20.955A199.158,199.158,0,0,0,273.457,371.61ZM295.1,359.734l-.3.184Zm.312-.194-.235.146Zm.33-.206-.136.085Zm.34-.213-.109.069Zm1.169-.738-.044.028Zm.352-.224-.109.07Zm.326-.208-.2.128Zm.327-.21-.231.148Zm69.656-62.461c-18.59,21.8-41.931,44.647-69.622,62.439C322.341,342.264,345.747,321.272,367.913,295.28Zm.539-.633-.534.627Zm.262-.308-.245.289ZM369,294l-.258.3ZM195,273Zm.24,0h0Zm.238,0h0Zm.231,0h0Zm.223,0h0Zm25.273-4.959-.019.007Zm.274-.1-.07.026Zm.264-.1-.128.048Zm37.332-23.141q-1.228,1.049-2.454,2.059c-11.764,9.69-23.4,16.722-34.808,21.055C235.013,262.791,247.561,254.524,259.076,244.691ZM116.183,224.077q.24.541.488,1.078Q116.422,224.618,116.183,224.077Zm-.071-.162.043.1Zm-.074-.168.017.04Zm169.6-6.1-.045.054Zm.162-.192-.049.058Zm14.919-19.224c-4.806,6.7-9.766,13.1-14.812,19.1C291.3,210.9,296.266,204.429,300.714,198.227Zm.142-.2-.117.163Zm.14-.2-.082.114Zm.152-.213-.056.078Zm.137-.191-.015.021Zm.157-.22-.016.022Zm.312-.44-.006.009ZM110,195c0,.084,0,.164,0,.248Q110,195.124,110,195Zm193,0Zm-193-.248c0,.084,0,.164,0,.248Q110,194.875,110,194.751ZM0,195C0,90.836,82.165,5.435,185.075.249,82.216,5.451,0,90.984,0,195Zm302.88-.172,0,.007Zm-49.451-54.045.007.005Zm-.267-.209.049.039Zm-.318-.248.154.12Zm-41.1-21.249c13.346,3.262,27.088,10.359,41.061,21.218C240.057,130.391,226.2,122.613,211.743,119.077Zm-.175-.043.094.023Zm-.223-.054.052.012Zm-.215-.051h0Zm86.277-87.215.245.156Zm-.243-.155.161.1Zm-.3-.187.111.07Zm-.188-.119.039.025Zm-.322-.2.024.015Zm-.394-.248.126.079Zm-.369-.231.155.1Zm-.421-.262.246.153ZM273.457,18.389A198.322,198.322,0,0,0,248.98,8.608a180.112,180.112,0,0,0-26.167-6.347A172.967,172.967,0,0,0,195.8,0h.164c37.294.208,70.485,12.471,99.145,30.266A225.559,225.559,0,0,0,273.457,18.389ZM185.346.235l-.193.01Zm.269-.013-.038,0Z" transform="translate(738 390) rotate(180)" fill="#e0f2ff"/>
  </g>
</svg>
