<svg xmlns="http://www.w3.org/2000/svg" width="40" height="40" viewBox="0 0 40 40">
  <path id="linkedIn-icon" d="M37.306,2.749h-34c-1.571,0-3,.411-3,2v35a3.1,3.1,0,0,0,3,3h34a3.1,3.1,0,0,0,3-3v-35C40.306,3.16,38.877,2.749,37.306,2.749Zm-25,34h-6v-19h6Zm-3-22c-1.9,0-4-1.107-4-3a4.478,4.478,0,0,1,4-4c1.893,0,3,2.107,3,4A2.735,2.735,0,0,1,9.306,14.749Zm25,22h-6v-9c0-2.214.036-6-3-6-3.089,0-4,2.509-4,5v10h-5v-19h5v2h0c.795-1.5,3.116-3,6-3,6,0,7,3.857,7,9Z" transform="translate(-0.306 -2.749)" fill="#2a2a2a"/>
</svg>
