<svg id="uI_and_ux" xmlns="http://www.w3.org/2000/svg" width="128.487" height="78" viewBox="0 0 128.487 78">
  <path id="Subtraction_33" data-name="Subtraction 33" d="M33.5,78A33.472,33.472,0,0,1,0,44.5V0H18.9V46.744a14.627,14.627,0,1,0,29.254,0V0H67V44.5A33.472,33.472,0,0,1,33.5,78Z" fill="#3e4e5e"/>
  <rect id="Rectangle_80" data-name="Rectangle 80" width="7" height="33" transform="translate(113)" fill="#69bdff"/>
  <g id="Group_96" data-name="Group 96" transform="translate(104.627 50.624)">
    <path id="Subtraction_35" data-name="Subtraction 35" d="M8.185,27.149H0L15.674,0h8.185L8.185,27.149h0Z" transform="translate(0 0)" fill="#69bdff"/>
    <path id="Subtraction_37" data-name="Subtraction 37" d="M23.859,27.149H15.674L0,0H8.185L23.859,27.149h0Z" transform="translate(0 0)" fill="#69bdff"/>
  </g>
  <g id="Group_97" data-name="Group 97" transform="translate(-3233 -1275)">
    <line id="Line_23" data-name="Line 23" x2="17" transform="translate(3305.5 1314.5)" fill="none" stroke="#3e4e5e" stroke-linecap="round" stroke-width="3" stroke-dasharray="9"/>
    <line id="Line_26" data-name="Line 26" x2="17" transform="translate(3322.5 1291.5)" fill="none" stroke="#3e4e5e" stroke-linecap="round" stroke-width="3" stroke-dasharray="9"/>
    <line id="Line_27" data-name="Line 27" x2="17" transform="translate(3322.5 1337.5)" fill="none" stroke="#3e4e5e" stroke-linecap="round" stroke-width="3" stroke-dasharray="9"/>
    <line id="Line_24" data-name="Line 24" y2="23" transform="translate(3322.5 1291.5)" fill="none" stroke="#3e4e5e" stroke-linecap="round" stroke-width="3" stroke-dasharray="9"/>
    <line id="Line_25" data-name="Line 25" y2="23" transform="translate(3322.5 1314.5)" fill="none" stroke="#3e4e5e" stroke-linecap="round" stroke-width="3" stroke-dasharray="9"/>
  </g>
</svg>
